<svg xmlns="http://www.w3.org/2000/svg" xmlns:xlink="http://www.w3.org/1999/xlink" fill="red"  version="1.1" id="Layer_1" x="0" y="0" width="64" height="64" viewBox="0 0 64 64" xml:space="preserve" enable-background="new 0 0 64 64">
  <path d="M60 13H48V4c0-2.2-1.8-4-4-4H20c-2.2 0-4 1.8-4 4v9H4c-2.2 0-4 1.8-4 4v43c0 2.2 1.8 4 4 4h56c2.2 0 4-1.8 4-4V17C64 14.8 62.2 13 60 13zM18 4c0-1.1 0.9-2 2-2h24c1.1 0 2 0.9 2 2v9h-2V5c0-0.6-0.4-1-1-1H21c-0.6 0-1 0.4-1 1v8h-2V4zM42 6v7H22V6H42zM62 60c0 1.1-0.9 2-2 2H4c-1.1 0-2-0.9-2-2V42h10v5c0 0.6 0.4 1 1 1h6c0.6 0 1-0.4 1-1v-5h24v5c0 0.6 0.4 1 1 1h6c0.6 0 1-0.4 1-1v-5h10V60zM14 46V36h4v10H14zM46 46V36h4v10H46zM62 40H52v-5c0-0.6-0.4-1-1-1h-6c-0.6 0-1 0.4-1 1v5H20v-5c0-0.6-0.4-1-1-1h-6c-0.6 0-1 0.4-1 1v5H2V17c0-1.1 0.9-2 2-2h56c1.1 0 2 0.9 2 2V40z" fill="#231F20"/>
</svg>
